<svg width="56" height="55" viewBox="0 0 56 55" fill="none" xmlns="http://www.w3.org/2000/svg">
<path d="M36.9793 21.9017C38.746 21.9017 40.1782 20.4815 40.1782 18.7296C40.1782 16.9776 38.746 15.5574 36.9793 15.5574C35.2125 15.5574 33.7803 16.9776 33.7803 18.7296C33.7803 20.4815 35.2125 21.9017 36.9793 21.9017Z" fill="#ED174C"/>
<path d="M48.8084 8.4335C48.8657 10.9392 47.8477 18.2241 36.8168 30.6494C36.8083 35.1404 36.3861 39.6213 35.5554 44.0361C35.5437 44.0897 35.5452 44.1454 35.5597 44.1984C35.5742 44.2513 35.6013 44.3001 35.6388 44.3405C35.6763 44.3809 35.7229 44.4118 35.7749 44.4306C35.827 44.4494 35.8827 44.4556 35.9376 44.4486C39.9016 43.9063 43.6424 42.3061 46.7604 39.8191C49.8784 37.3322 52.2563 34.0518 53.64 30.3287C55.0238 26.6055 55.3613 22.5795 54.6166 18.6809C53.8718 14.7823 52.0728 11.1576 49.4118 8.19417C49.3643 8.14212 49.3019 8.10575 49.233 8.08992C49.164 8.0741 49.0919 8.07958 49.0261 8.10565C48.9604 8.13171 48.9044 8.1771 48.8654 8.23571C48.8265 8.29432 48.8066 8.36335 48.8084 8.4335Z" fill="#ED174C"/>
<path d="M47.3621 6.99951C47.4336 7.00213 47.5042 6.98274 47.5641 6.94399C47.6241 6.90525 47.6704 6.84906 47.6969 6.78313C47.7233 6.7172 47.7285 6.64477 47.7118 6.57578C47.6951 6.50679 47.6572 6.44463 47.6035 6.39783C44.615 3.75911 40.9597 1.97519 37.0281 1.2367C33.0965 0.498219 29.0365 0.832929 25.2819 2.20506C21.5273 3.5772 18.2192 5.93519 15.7112 9.02703C13.2032 12.1189 11.5895 15.8284 11.0426 19.7591C11.0356 19.8135 11.0418 19.8688 11.0607 19.9204C11.0797 19.972 11.1109 20.0183 11.1516 20.0554C11.1924 20.0926 11.2415 20.1195 11.295 20.1339C11.3484 20.1482 11.4045 20.1497 11.4586 20.1381C15.9107 19.3144 20.4294 18.8957 24.9584 18.8873C37.4867 7.95551 44.8353 6.94268 47.3621 6.99951Z" fill="#ED174C"/>
<path d="M19.5839 25.7839C16.9913 23.9268 14.2533 22.2778 11.396 20.8528C11.3454 20.8274 11.2892 20.8147 11.2324 20.8159C11.1757 20.8171 11.1201 20.8322 11.0706 20.8597C11.0211 20.8873 10.9792 20.9265 10.9486 20.9739C10.918 21.0213 10.8996 21.0755 10.8951 21.1316C10.674 24.0951 11.0612 27.0723 12.0331 29.8833C12.1566 30.2309 12.1937 30.6028 12.1415 30.9676C12.0893 31.3324 11.9492 31.6794 11.7331 31.9792L1.28331 46.2837C1.23859 46.3462 1.21958 46.4233 1.23015 46.4993C1.24071 46.5752 1.28006 46.6443 1.34018 46.6925C1.4003 46.7407 1.47668 46.7644 1.55378 46.7588C1.63089 46.7531 1.70292 46.7185 1.75524 46.6621L19.6884 26.8007C19.7536 26.7292 19.8028 26.645 19.8331 26.5535C19.8633 26.4619 19.8739 26.3651 19.864 26.2693C19.8542 26.1734 19.8242 26.0807 19.7759 25.9971C19.7277 25.9135 19.6623 25.8409 19.5839 25.7839Z" fill="#ED174C"/>
<path d="M25.6475 30.9476C25.5835 30.8826 25.507 30.8309 25.4227 30.7954C25.3383 30.7599 25.2476 30.7414 25.156 30.741C25.0644 30.7406 24.9735 30.7582 24.8888 30.7928C24.8041 30.8275 24.7272 30.8785 24.6625 30.9429L8.57658 46.8941C8.51862 46.9483 8.48445 47.0229 8.48142 47.1019C8.47839 47.1808 8.50675 47.2578 8.56038 47.3163C8.61402 47.3747 8.68864 47.4099 8.76821 47.4144C8.84777 47.4188 8.92591 47.3921 8.9858 47.34L21.7278 36.8674C21.7278 36.8674 24.9369 34.0656 25.9752 35.2282C27.0842 36.471 26.2158 38.1971 20.8305 42.9791L8.81052 53.6542C8.75538 53.7067 8.72213 53.7778 8.71734 53.8534C8.71255 53.929 8.73659 54.0036 8.78468 54.0625C8.83277 54.1214 8.9014 54.1602 8.97699 54.1712C9.05257 54.1823 9.12959 54.1648 9.19278 54.1222L23.6162 43.76C23.9184 43.5457 24.2682 43.4068 24.636 43.355C25.0037 43.3032 25.3787 43.3401 25.7291 43.4625C28.5646 44.426 31.5676 44.8097 34.5568 44.5903C34.6133 44.5856 34.6678 44.5672 34.7155 44.5367C34.7632 44.5062 34.8027 44.4646 34.8304 44.4156C34.8582 44.3665 34.8734 44.3114 34.8747 44.2552C34.876 44.1989 34.8634 44.1432 34.8379 44.0929C33.8101 42.0663 32.6662 40.0996 31.4118 38.2025C29.7207 35.6126 27.791 33.1839 25.6475 30.9476Z" fill="#ED174C"/>
</svg>
