<svg width="77" height="26" viewBox="0 0 77 26" fill="none" xmlns="http://www.w3.org/2000/svg">
<g clip-path="url(#clip0_2_3)">
<path d="M38.1462 1.90856V2.97704H37.0492V4.04546H35.9521V2.97704V1.90856H34.855V0.840088H33.758V1.90856H32.661V2.97704V4.04546H31.5639V2.97704H30.4668V1.90856H29.3698V2.97704V4.04546V5.11393V6.18241V7.25089V8.31936H30.4668H31.5639H32.661H33.758H34.855H35.9521H37.0492H38.1462H39.2432V7.25089V6.18241V5.11393V4.04546V2.97704V1.90856H38.1462Z" fill="url(#paint0_radial_2_3)"/>
<path d="M9.05699 25.2695L4.2681 18.5232V25.2695H0.847473V10.6943H4.2681V17.024L8.84318 10.6943H12.7342L7.68873 17.7945L12.9479 25.2695H9.05699Z" fill="#3C55FF"/>
<path d="M26.5245 17.9819C26.5245 13.6925 30.0093 10.4027 34.3065 10.4027C38.6037 10.4027 42.0884 13.6925 42.0884 17.9819C42.0884 22.2712 38.6037 25.561 34.3065 25.561C30.0093 25.561 26.5245 22.2711 26.5245 17.9819ZM38.6678 17.9819C38.6678 15.3791 36.7437 13.6509 34.3065 13.6509C31.8693 13.6509 29.9452 15.3791 29.9452 17.9819C29.9452 20.5846 31.8693 22.3127 34.3065 22.3127C36.7437 22.3127 38.6678 20.5846 38.6678 17.9819Z" fill="#3C55FF"/>
<path d="M42.303 10.6943H45.8946L48.4814 20.8969L51.3676 10.6943H54.1469L57.033 20.8969L59.6199 10.6943H63.2116L59.0855 25.2695H55.1944L52.7572 16.67L50.32 25.2695H46.4291L42.303 10.6943Z" fill="#3C55FF"/>
<path d="M76.4673 10.6943V25.2695H73.9018L68.1296 17.3575V25.2695H64.7089V10.6943H67.2743L73.0466 18.6063V10.6943H76.4673Z" fill="#3C55FF"/>
<path d="M22.5902 19.9183C24.2368 19.1061 25.3482 17.4821 25.3482 15.6914C25.3498 15.0347 25.2182 14.3842 24.9609 13.7772C24.7036 13.1702 24.3257 12.6187 23.849 12.1543C23.3722 11.69 22.8059 11.3219 22.1826 11.0714C21.5594 10.8208 20.8914 10.6926 20.2172 10.6942H14.2311V13.8175H20.2172C21.1579 13.8175 21.9276 14.6295 21.9276 15.6914C21.9276 16.7533 21.1579 17.5654 20.2172 17.5654H17.6519V15.8255H14.2311V25.2694H17.6519V20.4804H19.2767L22.0987 25.2694H25.7756L22.5902 19.9183Z" fill="#3C55FF"/>
</g>
<defs>
<radialGradient id="paint0_radial_2_3" cx="0" cy="0" r="1" gradientUnits="userSpaceOnUse" gradientTransform="translate(34.5047 8.13606) scale(13.0956 12.7543)">
<stop stop-color="#00FF90"/>
<stop offset="0.989" stop-color="#3C55FF"/>
</radialGradient>
<clipPath id="clip0_2_3">
<rect width="77" height="26" fill="white"/>
</clipPath>
</defs>
</svg>
